<?xml version="1.0" encoding="utf-8"?>
<svg version="1.1" id="IWS" xmlns="http://www.w3.org/2000/svg" xmlns:xlink="http://www.w3.org/1999/xlink" x="0px" y="0px" viewBox="0 0 224.9 145.7" style="enable-background:new 0 0 224.9 145.7;" xml:space="preserve">
<style type="text/css">
	.iws0{fill:none;}
	.iws1{fill:#262C5B;}
	.iws2{fill:#A7AB43;}
	.iws3{fill:#A7AB43;}
</style>
<rect x="-13.8" y="-13.5" class="iws0" width="252.7" height="174.7"/>
<path class="iws1" d="M211.8,1.6c6.4,0,11.6,5.3,11.6,11.9V97c0,6.5-5.2,11.9-11.6,11.9H13c-6.4,0-11.6-5.3-11.6-11.9V13.4
	C1.4,6.9,6.5,1.5,13,1.5h198.8V1.6z"/>
<polygon class="iws2" points="30.5,88.9 30.5,22.7 43.8,22.7 43.8,88.9 "/>
<polygon class="iws2" points="65.9,88.9 50.2,22.7 63.8,22.7 73.8,68.2 85.8,22.7 101.8,22.7 113.3,68.9 123.6,22.7 136.9,22.7 
	120.9,88.9 106.8,88.9 93.6,39.4 80.3,88.9 "/>
<path class="iws2" d="M140.4,67.4l13-1.3c0.8,4.4,2.4,7.6,4.8,9.6c2.4,2,5.6,3.1,9.7,3.1c4.3,0,7.5-0.9,9.7-2.7
	c2.2-1.8,3.3-3.9,3.3-6.4c0-1.6-0.5-2.9-1.4-4s-2.5-2.1-4.8-2.9c-1.6-0.6-5.1-1.5-10.7-2.9c-7.2-1.8-12.2-4-15.1-6.5
	c-4.1-3.6-6.1-8.1-6.1-13.3c0-3.4,1-6.5,2.9-9.5c1.9-2.9,4.7-5.2,8.3-6.7s7.9-2.3,13-2.3c8.3,0,14.6,1.8,18.8,5.5s6.4,8.5,6.6,14.6
	L179,42.3c-0.6-3.4-1.8-5.9-3.7-7.3c-1.9-1.5-4.7-2.2-8.5-2.2c-3.9,0-6.9,0.8-9.1,2.4c-1.4,1-2.1,2.4-2.1,4.1c0,1.6,0.7,2.9,2,4
	c1.7,1.4,5.8,2.9,12.3,4.4s11.3,3.1,14.4,4.8c3.1,1.6,5.5,3.9,7.3,6.7c1.8,2.8,2.6,6.4,2.6,10.5c0,3.8-1,7.3-3.2,10.6
	c-2.1,3.3-5.1,5.8-8.9,7.4c-3.8,1.6-8.7,2.4-14.4,2.4c-8.4,0-14.8-1.9-19.3-5.8C143.9,80.4,141.3,74.8,140.4,67.4L140.4,67.4z"/>
<path class="iws3" d="M196.9,18.5v-5.3h-1.9v-1.1h5.1v1.1h-1.9v5.3H196.9L196.9,18.5z M200.9,18.5v-6.4h1.9l1.2,4.4l1.1-4.4h1.9v6.4
	h-1.2v-5l-1.3,5h-1.2l-1.3-5v5H200.9L200.9,18.5z"/>
<path class="iws1" d="M6.3,144.8H1.6L5,124.9h4.7L6.3,144.8L6.3,144.8z M16.5,130.1l-0.4,2.5l0,0c1.2-1.8,2.7-2.8,4.7-2.8
	c1.7,0,2.8,0.5,3.4,1.6c0.2,0.4,0.4,1,0.4,1.8c0,0.6-0.1,1.4-0.3,2.5l-1.6,9.1h-4.3l1.4-7.9c0.2-0.9,0.3-1.5,0.3-2.1
	c0-1.1-0.5-1.7-1.5-1.7c-0.8,0-1.5,0.4-2,1.1c-0.4,0.6-0.7,1.5-1,2.6l-1.4,7.9H9.9l2.6-14.7L16.5,130.1L16.5,130.1z M44.8,144.8
	h-4.6l-1-13.2l0,0l-5.4,13.2h-4.6l-1.6-19.9h4.7l0.7,12.4v1h0.2l5.6-13.4h4.3l1,13.4l0,0l0.3-0.9l5.1-12.5h3.8L44.8,144.8
	L44.8,144.8z M64.3,144.8h-4.2l1.4-8c0.2-0.9,0.2-1.6,0.2-2c0-1.1-0.4-1.7-1.3-1.7c-0.4,0-0.8,0.1-1.3,0.3c-0.4,0.2-0.8,0.5-1,0.8
	c-0.4,0.5-0.6,1.4-0.8,2.6l-1.4,8h-4.2l3.5-19.9h4.2l-1.2,7.2h0.1c0.4-0.7,1-1.3,1.7-1.7c0.8-0.4,1.6-0.6,2.4-0.6
	c1.7,0,2.8,0.5,3.4,1.6c0.3,0.5,0.4,1.1,0.4,1.6c0,0.3-0.1,1.1-0.3,2.4L64.3,144.8L64.3,144.8z M71.8,144.8h-4.2l2.6-14.7h4.2
	L71.8,144.8L71.8,144.8z M74.6,128.7h-4.2l0.7-4.1h4.2L74.6,128.7L74.6,128.7z M75.7,133.4l0.6-3.4h2.6l1.1-4.3l3.8-0.3l-0.8,4.6
	h3.2l-0.6,3.4h-3.3l-1.1,5.8c-0.1,0.5-0.1,0.9-0.1,1.3c0,0.4,0.1,0.7,0.4,0.8c0.2,0.2,0.7,0.3,1.4,0.3l1.4-0.1l-0.6,3.2l-0.3,0.1
	c-1.4,0.2-2.2,0.2-2.4,0.2c-1.8,0-3-0.3-3.7-0.9c-0.5-0.5-0.7-1.1-0.7-2c0-0.6,0.1-1.3,0.3-2.2l1.2-6.5L75.7,133.4L75.7,133.4z
	 M90.9,138.2l-0.1,0.7c-0.1,0.4-0.1,0.6-0.1,0.7c0,0.7,0.2,1.3,0.6,1.8s1,0.7,1.8,0.7c0.7,0,1.3-0.2,1.9-0.7c0.6-0.4,1-1,1.1-1.6
	l3.9,0.3c-0.1,0.4-0.4,1-1,1.8s-1.5,1.6-2.6,2.3s-2.4,1-3.9,1c-1.9,0-3.4-0.5-4.5-1.6c-1.1-1-1.6-2.5-1.6-4.2c0-0.5,0-1.1,0.1-1.6
	c0.2-1.5,0.7-2.8,1.5-4s1.8-2.1,3-2.8s2.5-1,4-1c1.1,0,2,0.2,2.9,0.7s1.6,1.1,2.1,1.9c0.5,0.9,0.7,1.9,0.7,3.2
	c0,0.9-0.1,1.7-0.3,2.6h-9.5V138.2z M96.6,135.6c0-1.1-0.1-1.9-0.4-2.4s-0.8-0.7-1.5-0.7c-1.7,0-2.8,1-3.3,3.1L96.6,135.6
	L96.6,135.6z M104.8,138.7c0.2,1.4,0.8,2.4,1.7,3.1c1,0.7,2.2,1,3.7,1c1.6,0,2.9-0.3,3.9-1c1-0.7,1.6-1.6,1.8-2.7c0-1.8-1-2.9-3-3.3
	l-3.3-0.9c-0.8-0.2-1.5-0.4-2-0.7c-0.5-0.2-1-0.6-1.4-1c-0.7-0.8-1.1-1.7-1.1-2.9c0-0.3,0-0.6,0.1-1c0.2-1.3,0.7-2.3,1.5-3.2
	s1.8-1.5,2.9-1.9s2.3-0.6,3.6-0.6c1.8,0,3.2,0.4,4.4,1.3c1.1,0.9,1.8,2.1,2.1,3.8l-2.4,0.6c0-1.1-0.5-2-1.4-2.7s-1.9-1-3.1-1
	c-1.1,0-2.2,0.3-3.2,0.9c-1,0.6-1.6,1.4-1.8,2.5c0,1.1,0.2,1.8,0.7,2.2s1.3,0.8,2.4,1.1l3,0.7c1.7,0.5,2.9,1.1,3.5,1.7
	c0.9,0.8,1.3,1.9,1.3,3.2c0,0.2,0,0.5-0.1,0.9c-0.4,1.9-1.4,3.5-3.2,4.7c-1.5,1-3.4,1.5-5.7,1.5c-4.3,0-6.7-2-7.4-5.9L104.8,138.7
	L104.8,138.7z M121.4,137c0.4-2.2,1.3-4.1,2.9-5.6c1.5-1.5,3.4-2.3,5.6-2.3c1.8,0,3.2,0.6,4.1,1.7c0.9,1.1,1.4,2.6,1.4,4.4
	c0,0.4-0.1,1-0.2,1.8c-0.4,2.3-1.4,4.2-2.9,5.7s-3.4,2.3-5.6,2.3c-1.8,0-3.2-0.6-4.1-1.7c-0.9-1.1-1.3-2.6-1.3-4.4
	C121.3,138.3,121.4,137.6,121.4,137L121.4,137z M131.1,140.9c0.7-1,1.2-2.4,1.4-4c0.1-0.9,0.2-1.6,0.2-2c0-0.9-0.1-1.6-0.4-2.1
	c-0.7-1.2-1.7-1.8-3-1.8c-1.6,0-2.8,0.7-3.8,2.2c-0.7,0.9-1.2,2.2-1.5,3.8c-0.1,0.9-0.2,1.7-0.2,2.2c0,0.8,0.1,1.5,0.3,2
	c0.2,0.6,0.6,1.1,1.1,1.4c0.6,0.3,1.2,0.5,1.8,0.5C128.8,143.1,130.1,142.4,131.1,140.9L131.1,140.9z M137.6,144.8l3.6-20.7h2.3
	l-3.6,20.7H137.6L137.6,144.8z M154.4,144.8l0.6-3.1l0,0c-0.6,1-1.4,1.8-2.3,2.4c-1,0.6-1.9,0.9-3,0.9c-1.7,0-2.9-0.6-3.6-1.7
	c-0.4-0.6-0.6-1.5-0.6-2.5c0-0.7,0.1-1.4,0.2-2.1l1.7-9.4h2.4l-1.7,9.4c0,0.2,0,0.5-0.1,0.9s-0.1,0.7-0.1,0.9c0,0.4,0,0.7,0.1,1
	c0.2,0.4,0.5,0.8,0.9,1.1s0.9,0.4,1.4,0.4c1.2,0,2.4-0.5,3.5-1.6c1-0.9,1.6-2.2,1.9-3.9l1.4-8.2h2.3l-2.7,15.3h-2.3V144.8z
	 M168.1,144.9l-2.3,0.1c-2.4,0-3.6-1.1-3.6-3.3c0-0.3,0.1-0.9,0.2-1.7l1.6-8.8h-2.7l0.3-1.9h2.7l0.7-3.8l2.4-0.2l-0.7,4h3.4
	l-0.3,1.9h-3.5l-1.6,9.2c-0.1,0.2-0.1,0.6-0.1,1.1c0,1.1,0.7,1.7,2,1.7l1.9-0.2L168.1,144.9L168.1,144.9z M173.1,144.8h-2.3
	l2.7-15.3h2.3L173.1,144.8L173.1,144.8z M176.4,126.7h-2.6l0.5-2.6h2.6L176.4,126.7L176.4,126.7z M178.1,137
	c0.4-2.2,1.3-4.1,2.9-5.6c1.5-1.5,3.4-2.3,5.6-2.3c1.8,0,3.2,0.6,4.1,1.7c0.9,1.1,1.4,2.6,1.4,4.4c0,0.4-0.1,1-0.2,1.8
	c-0.4,2.3-1.4,4.2-2.9,5.7s-3.4,2.3-5.6,2.3c-1.8,0-3.2-0.6-4.1-1.7c-0.9-1.1-1.4-2.6-1.4-4.4C177.9,138.3,178.1,137.6,178.1,137
	L178.1,137z M187.9,140.9c0.7-1,1.2-2.4,1.4-4c0.1-0.9,0.2-1.6,0.2-2c0-0.9-0.1-1.6-0.4-2.1c-0.7-1.2-1.7-1.8-3-1.8
	c-1.6,0-2.8,0.7-3.8,2.2c-0.7,0.9-1.2,2.2-1.5,3.8c-0.1,0.9-0.2,1.7-0.2,2.2c0,0.8,0.1,1.5,0.3,2c0.2,0.6,0.6,1.1,1.1,1.4
	c0.6,0.3,1.2,0.5,1.8,0.5C185.6,143.1,186.9,142.4,187.9,140.9L187.9,140.9z M198.4,132.3L198.4,132.3c0.7-1,1.4-1.8,2.4-2.3
	c0.9-0.6,2-0.9,3-0.9c1.9,0,3.2,0.8,3.9,2.4c0.2,0.5,0.3,1,0.3,1.6c0,0.7-0.1,1.7-0.4,3.2l-1.5,8.5h-2.4l1.7-9.5
	c0-0.2,0.1-0.5,0.1-0.8c0.1-0.4,0.1-0.7,0.1-1s0-0.7-0.1-1c-0.2-0.4-0.5-0.8-1-1c-0.4-0.2-0.9-0.4-1.5-0.4c-1.3,0-2.4,0.5-3.4,1.5
	c-0.9,0.9-1.6,2.3-1.9,4.1l-1.4,8.1H194l2.7-15.3h2.3L198.4,132.3L198.4,132.3z M212.4,140.3c0,0.9,0.4,1.7,1.3,2.1
	c0.8,0.5,1.8,0.7,2.8,0.7s1.9-0.2,2.7-0.6c0.8-0.4,1.3-1.1,1.5-2c0-0.7-0.2-1.3-0.7-1.6s-1.1-0.5-1.9-0.7l-2.4-0.5
	c-2.5-0.4-3.8-1.6-3.8-3.4c0-0.2,0-0.4,0.1-0.8c0.3-1.5,1-2.6,2.3-3.4c1.3-0.8,2.7-1.1,4.2-1.1s2.8,0.3,3.7,0.9
	c1,0.6,1.5,1.6,1.6,2.9l-2.2,0.5c-0.2-0.8-0.5-1.4-1.2-1.8c-0.6-0.4-1.4-0.6-2.4-0.6c-0.8,0-1.6,0.2-2.3,0.6
	c-0.7,0.4-1.2,0.9-1.3,1.7c0,0.8,0.2,1.3,0.6,1.6c0.4,0.3,1,0.5,1.8,0.7l2.1,0.4c1.5,0.3,2.5,0.6,3,1c0.9,0.7,1.3,1.8,1.3,3.5
	c-0.3,1.6-1.1,2.8-2.5,3.6s-3,1.2-4.7,1.2c-1.6,0-3-0.4-4.1-1.1c-1.1-0.7-1.7-1.8-1.9-3.3L212.4,140.3L212.4,140.3z"/>
</svg>
